<svg width="24" height="24" viewBox="0 0 24 24" xmlns="http://www.w3.org/2000/svg" xmlns:xlink="http://www.w3.org/1999/xlink">
  <path fill="#505050" stroke="none" d="M 12 2 C 6.477136 2 2 6.477137 2 12 C 2 17.522863 6.477136 22 12 22 C 17.522863 22 22 17.522863 22 12 C 22 6.477137 17.522863 2 12 2 Z M 8.253095 18.770538 L 5.441842 18.770538 L 5.441842 9.725422 L 8.253095 9.725422 L 8.253095 18.770538 Z M 6.848082 8.489002 C 5.947008 8.489002 5.217596 7.758568 5.217596 6.858721 C 5.217801 5.959692 5.947008 5.229258 6.848082 5.229258 C 7.746701 5.229258 8.477136 5.959692 8.477136 6.858721 C 8.477136 7.758772 7.746496 8.489002 6.848082 8.489002 Z M 18.7822 18.770538 L 15.973197 18.770538 L 15.973197 14.371764 C 15.973197 13.322762 15.953759 11.973606 14.511918 11.973606 C 13.049821 11.973606 12.824962 13.116113 12.824962 14.295856 L 12.824962 18.770332 L 10.016164 18.770332 L 10.016164 9.725422 L 12.712429 9.725422 L 12.712429 10.961432 L 12.750281 10.961432 C 13.125729 10.250231 14.042353 9.500563 15.410128 9.500563 C 18.256779 9.500563 18.7822 11.373913 18.7822 13.809309 L 18.7822 18.770538 Z"/>
</svg>
