<?xml version="1.0" encoding="utf-8"?>
<!-- Generator: Adobe Illustrator 25.4.1, SVG Export Plug-In . SVG Version: 6.00 Build 0)  -->
<svg version="1.1" id="Layer_1" xmlns="http://www.w3.org/2000/svg" xmlns:xlink="http://www.w3.org/1999/xlink" x="0px" y="0px"
	 viewBox="0 0 375.5 296.2" style="enable-background:new 0 0 375.5 296.2;" xml:space="preserve">
<style type="text/css">
	.st0{fill:#CC0000;}
	.st1{fill:#002E6D;}
</style>
<polygon class="st0" points="312.4,275 65.8,275 63.5,275 63.5,272.7 63.5,239.6 42.3,239.6 42.3,296.2 312.4,296.2 "/>
<polygon class="st1" points="42.7,61.9 63.8,61.9 63.8,28.7 63.8,26.4 66.2,26.4 310.3,26.4 312.6,26.4 312.6,28.7 312.6,61.9 
	333.7,61.9 333.7,5.3 42.7,5.3 "/>
<path class="st1" d="M25.7,176.8c0.2,7.4,3.7,21.4,26.9,21.4c12.6,0,26.6-3.1,26.6-17.1c0-10.3-9.6-13.1-23-16.4l-13.7-3.3
	c-20.6-5-40.4-9.8-40.4-38.9c0-14.7,7.6-40.7,48.9-40.7c39,0,49.5,26.5,49.6,42.7H75.1c-0.7-5.9-2.8-19.9-26.1-19.9
	c-10.1,0-22.2,3.9-22.2,15.8c0,10.3,8.2,12.5,13.5,13.8l31,7.9c17.4,4.4,33.3,11.8,33.3,35.5c0,39.8-39,43.3-50.2,43.3
	C8,220.9,0,193.1,0,176.7h25.7L25.7,176.8L25.7,176.8z"/>
<path class="st1" d="M138.4,85.3h64.3c32.4,0,40.7,20.3,40.7,33.9c0,19-10.7,24.3-16.2,27.1c16.2,6.1,20.4,19,20.4,32
	c0,10.5-4.4,20.4-11.4,27.2c-7.6,7.4-14.7,12-41.8,12h-56L138.4,85.3L138.4,85.3z M164.9,137h32.4c10.9,0,19.5-4.2,19.5-14.7
	c0-10.9-7.7-14.2-20.3-14.2h-31.7V137H164.9z M164.9,194.7h33.9c13.4,0,21.2-5.9,21.2-19.3c0-11.6-9.9-16-19.9-16h-35.2V194.7z"/>
<polygon class="st1" points="333.5,85.3 312.6,85.3 270.6,217.5 297.1,217.5 322.8,130.7 349,217.5 375.5,217.5 "/>
<polygon class="st1" points="333.4,274.9 312.4,296.2 312.4,217.9 333.4,217.9 "/>
</svg>
