<?xml version="1.0" encoding="utf-8"?>
<!-- Generator: Adobe Illustrator 27.5.0, SVG Export Plug-In . SVG Version: 6.00 Build 0)  -->
<svg version="1.1" id="Layer_1" xmlns="http://www.w3.org/2000/svg" xmlns:xlink="http://www.w3.org/1999/xlink" x="0px" y="0px"
	 viewBox="0 0 24 24" style="enable-background:new 0 0 24 24;" xml:space="preserve">
<style type="text/css">
	.st0{fill:#505050;}
</style>
<g>
	<path class="st0" d="M12,2C6.5,2,2,6.5,2,12s4.5,10,10,10s10-4.5,10-10S17.5,2,12,2z M14.3,18l-3.2-4.7l-4,4.7h-1l4.6-5.3L6.1,6
		h3.5l3.1,4.4L16.5,6h1l-4.4,5.1l4.7,6.9H14.3z"/>
	<polygon class="st0" points="12.1,11.1 9.1,6.8 7.5,6.8 11.2,11.9 11.7,12.6 14.9,17.2 16.5,17.2 12.6,11.8 	"/>
</g>
</svg>
